<mxfile host="Electron" modified="2025-04-04T15:18:41.946Z" agent="Mozilla/5.0 (Macintosh; Intel Mac OS X 10_15_7) AppleWebKit/537.36 (KHTML, like Gecko) draw.io/21.2.1 Chrome/112.0.5615.87 Electron/24.1.2 Safari/537.36" etag="aHG0LOcq8nM5u_-XGNGD" version="21.2.1" type="device">
  <diagram name="Page-1" id="2CIJYS7t3cjzpXo6SF1b">
    <mxGraphModel dx="1026" dy="691" grid="1" gridSize="10" guides="1" tooltips="1" connect="1" arrows="1" fold="1" page="1" pageScale="1" pageWidth="850" pageHeight="1100" math="0" shadow="0">
      <root>
        <mxCell id="0" />
        <mxCell id="1" parent="0" />
        <mxCell id="fhVrtsqZh9QXN_zF8PGq-4" value="ask for text" style="edgeStyle=orthogonalEdgeStyle;rounded=0;orthogonalLoop=1;jettySize=auto;html=1;entryX=0;entryY=0.5;entryDx=0;entryDy=0;" edge="1" parent="1" source="fhVrtsqZh9QXN_zF8PGq-1" target="fhVrtsqZh9QXN_zF8PGq-3">
          <mxGeometry relative="1" as="geometry" />
        </mxCell>
        <mxCell id="fhVrtsqZh9QXN_zF8PGq-1" value="Frontend" style="rounded=0;whiteSpace=wrap;html=1;" vertex="1" parent="1">
          <mxGeometry x="100" y="210" width="120" height="60" as="geometry" />
        </mxCell>
        <mxCell id="fhVrtsqZh9QXN_zF8PGq-8" style="edgeStyle=orthogonalEdgeStyle;rounded=0;orthogonalLoop=1;jettySize=auto;html=1;" edge="1" parent="1" source="fhVrtsqZh9QXN_zF8PGq-3" target="fhVrtsqZh9QXN_zF8PGq-5">
          <mxGeometry relative="1" as="geometry" />
        </mxCell>
        <mxCell id="fhVrtsqZh9QXN_zF8PGq-3" value="AssistantController" style="html=1;whiteSpace=wrap;" vertex="1" parent="1">
          <mxGeometry x="350" y="215" width="160" height="50" as="geometry" />
        </mxCell>
        <mxCell id="fhVrtsqZh9QXN_zF8PGq-7" style="edgeStyle=orthogonalEdgeStyle;rounded=0;orthogonalLoop=1;jettySize=auto;html=1;" edge="1" parent="1" source="fhVrtsqZh9QXN_zF8PGq-5" target="fhVrtsqZh9QXN_zF8PGq-6">
          <mxGeometry relative="1" as="geometry" />
        </mxCell>
        <mxCell id="fhVrtsqZh9QXN_zF8PGq-5" value="AssistantService" style="html=1;whiteSpace=wrap;" vertex="1" parent="1">
          <mxGeometry x="375" y="320" width="110" height="50" as="geometry" />
        </mxCell>
        <mxCell id="fhVrtsqZh9QXN_zF8PGq-6" value="AI provider" style="html=1;whiteSpace=wrap;" vertex="1" parent="1">
          <mxGeometry x="530" y="460" width="110" height="50" as="geometry" />
        </mxCell>
        <mxCell id="fhVrtsqZh9QXN_zF8PGq-10" style="edgeStyle=orthogonalEdgeStyle;rounded=0;orthogonalLoop=1;jettySize=auto;html=1;" edge="1" parent="1" source="fhVrtsqZh9QXN_zF8PGq-9" target="fhVrtsqZh9QXN_zF8PGq-1">
          <mxGeometry relative="1" as="geometry" />
        </mxCell>
        <mxCell id="fhVrtsqZh9QXN_zF8PGq-13" style="edgeStyle=orthogonalEdgeStyle;rounded=0;orthogonalLoop=1;jettySize=auto;html=1;entryX=0;entryY=0.5;entryDx=0;entryDy=0;" edge="1" parent="1" source="fhVrtsqZh9QXN_zF8PGq-9" target="fhVrtsqZh9QXN_zF8PGq-12">
          <mxGeometry relative="1" as="geometry" />
        </mxCell>
        <mxCell id="fhVrtsqZh9QXN_zF8PGq-9" value="Firebase" style="shape=cylinder3;whiteSpace=wrap;html=1;boundedLbl=1;backgroundOutline=1;size=15;" vertex="1" parent="1">
          <mxGeometry x="130" y="370" width="60" height="80" as="geometry" />
        </mxCell>
        <mxCell id="fhVrtsqZh9QXN_zF8PGq-14" style="edgeStyle=orthogonalEdgeStyle;rounded=0;orthogonalLoop=1;jettySize=auto;html=1;entryX=0;entryY=0.5;entryDx=0;entryDy=0;" edge="1" parent="1" source="fhVrtsqZh9QXN_zF8PGq-12" target="fhVrtsqZh9QXN_zF8PGq-5">
          <mxGeometry relative="1" as="geometry">
            <Array as="points">
              <mxPoint x="290" y="345" />
            </Array>
          </mxGeometry>
        </mxCell>
        <mxCell id="fhVrtsqZh9QXN_zF8PGq-12" value="FirebaseService" style="rounded=0;whiteSpace=wrap;html=1;" vertex="1" parent="1">
          <mxGeometry x="240" y="380" width="120" height="60" as="geometry" />
        </mxCell>
      </root>
    </mxGraphModel>
  </diagram>
</mxfile>
